HIERARCHY
ROOT Hips
{
  OFFSET 54.587 85.7672 14.7694
  CHANNELS 6 Xposition Yposition Zposition Zrotation Xrotation Yrotation
  JOINT spine
  {
    OFFSET 0 6.3926 0.367606
    CHANNELS 3 Zrotation Xrotation Yrotation
    JOINT spine1
    {
      OFFSET 0 9.17611 0
      CHANNELS 3 Zrotation Xrotation Yrotation
      JOINT spine2
      {
        OFFSET 0 8.79238 0
        CHANNELS 3 Zrotation Xrotation Yrotation
        JOINT Neck
        {
          OFFSET 0 22.5737 1.07624
          CHANNELS 3 Zrotation Xrotation Yrotation
          JOINT Head
          {
            OFFSET 0 6.82011 0
            CHANNELS 3 Zrotation Xrotation Yrotation
            End Site
            {
              OFFSET 0 16.5085 -5.44427
            }
          }
        }
        JOINT RightShoulder
        {
          OFFSET -3.70221 9.49509 -0.515508
          CHANNELS 3 Zrotation Xrotation Yrotation
          JOINT RightArm
          {
            OFFSET 0 12.4537 0
            CHANNELS 3 Zrotation Xrotation Yrotation
            JOINT RightArmRoll
            {
              OFFSET 0 6.28686 0
              CHANNELS 3 Zrotation Xrotation Yrotation
              JOINT RightForeArm
              {
                OFFSET 0 18.3114 0
                CHANNELS 3 Zrotation Xrotation Yrotation
                JOINT RightForeArmRoll
                {
                  OFFSET 0 7.05482 0
                  CHANNELS 3 Zrotation Xrotation Yrotation
                  JOINT RightHand
                  {
                    OFFSET 0 14.1575 0
                    CHANNELS 3 Zrotation Xrotation Yrotation
                    End Site
                    {
                      OFFSET 0 0 0
                    }
                  }
                }
              }
            }
          }
        }
        JOINT LeftShoulder
        {
          OFFSET 3.70221 9.49509 -0.515508
          CHANNELS 3 Zrotation Xrotation Yrotation
          JOINT LeftArm
          {
            OFFSET 0 12.4537 0
            CHANNELS 3 Zrotation Xrotation Yrotation
            JOINT LeftArmRoll
            {
              OFFSET 0 6.28686 0
              CHANNELS 3 Zrotation Xrotation Yrotation
              JOINT LeftForeArm
              {
                OFFSET 0 18.3114 0
                CHANNELS 3 Zrotation Xrotation Yrotation
                JOINT LeftForeArmRoll
                {
                  OFFSET 0 7.05482 0
                  CHANNELS 3 Zrotation Xrotation Yrotation
                  JOINT LeftHand
                  {
                    OFFSET 0 14.1575 0
                    CHANNELS 3 Zrotation Xrotation Yrotation
                    End Site
                    {
                      OFFSET 0 0 0
                    }
                  }
                }
              }
            }
          }
        }
      }
    }
  }
  JOINT RightUpLeg
  {
    OFFSET -5.66616 -1.03903 -0.87161
    CHANNELS 3 Zrotation Xrotation Yrotation
    JOINT RightUpLegRoll
    {
      OFFSET 0 16.6005 0
      CHANNELS 3 Zrotation Xrotation Yrotation
      JOINT RightLeg
      {
        OFFSET 0 -20.5572 0
        CHANNELS 3 Zrotation Xrotation Yrotation
        JOINT RightLegRoll
        {
          OFFSET 0 20.6244 0
          CHANNELS 3 Zrotation Xrotation Yrotation
          JOINT RightFoot
          {
            OFFSET 0 17.1664 0
            CHANNELS 3 Zrotation Xrotation Yrotation
            JOINT RightToeBase
            {
              OFFSET 0 14.3502 0
              CHANNELS 3 Zrotation Xrotation Yrotation
              End Site
              {
                OFFSET 0.00608252 6.94971 -0.801061
              }
            }
          }
        }
      }
    }
  }
  JOINT LeftUpLeg
  {
    OFFSET 5.66616 -1.03903 -0.87161
    CHANNELS 3 Zrotation Xrotation Yrotation
    JOINT LeftUpLegRoll
    {
      OFFSET 0 16.6006 0
      CHANNELS 3 Zrotation Xrotation Yrotation
      JOINT LeftLeg
      {
        OFFSET 0 20.5571 0
        CHANNELS 3 Zrotation Xrotation Yrotation
        JOINT LeftLegRoll
        {
          OFFSET 0 20.8151 0
          CHANNELS 3 Zrotation Xrotation Yrotation
          JOINT LeftFoot
          {
            OFFSET 0 16.9757 0
            CHANNELS 3 Zrotation Xrotation Yrotation
            JOINT LeftToeBase
            {
              OFFSET 0 14.3502 0
              CHANNELS 3 Zrotation Xrotation Yrotation
              End Site
              {
                OFFSET -0.0272592 6.94971 -0.801061
              }
            }
          }
        }
      }
    }
  }
}
MOTION
Frames: 11
Frame Time: 0.00208333
54.1645 85.7333 15.0752 -2.53842 -4.06259 -6.20578 -0.0837744 -1.07438 -0.0979088 -0.152194 1.86791 -0.17725 -0.150199 3.51297 -0.174815 2.9006 7.99501 0.389257 -1.3303 4.01975 1.13921 62.8369 -0.617726 -0.816493 107.878 18.0117 5.89457 -1.08619e-007 -1.86408e-006 -3.09753e-006 12.8825 1.69063 -0.631285 3.63605e-006 2.33364e-006 -3.00712 8.02886 -4.95144 0.697686 -54.158 -1.70768 0.530832 -112.907 15.1308 -0.388914 -2.20337e-006 4.0046e-007 1.42891e-005 -9.75804 3.53965 0.857551 -6.55687e-007 -4.2193e-006 3 -8.02899 -4.95146 -0.697676 176.287 -2.28198 0.689258 180 7.01532e-015 178.86 176.736 5.30224 179.783 -1.27153e-006 3.61729e-006 0.0489909 -18.5121 67.7337 19.3228 8.13649 25.2327 -3.48773 -172.5 -2.94033 -1.23454 4.54188e-006 -4.6773e-006 -1.09343 -1.16509 -8.10929 0.50062 2.44502e-006 -3.05723e-006 -0.0876328 19.0652 69.8767 -21.1675 -8.13656 25.2337 3.4863 
54.1727 85.7349 15.0717 -2.54049 -4.05909 -6.20224 -0.083882 -1.07485 -0.0971434 -0.153306 1.86597 -0.177568 -0.151309 3.51103 -0.175115 2.89913 7.99289 0.386239 -1.32955 4.021 1.13578 62.836 -0.625864 -0.821056 107.875 18.0158 5.92243 -1.08619e-007 -1.86408e-006 -3.09753e-006 12.8643 1.67053 -0.62992 3.63605e-006 2.33364e-006 -3.00712 8.02886 -4.95144 0.697686 -54.1593 -1.70212 0.527224 -112.907 15.1308 -0.375728 -2.20337e-006 4.0046e-007 1.42891e-005 -9.7672 3.5653 0.859977 -6.55687e-007 -4.2193e-006 3 -8.02899 -4.95146 -0.697676 176.29 -2.28014 0.68724 180 7.01532e-015 178.86 176.736 5.30042 179.783 -1.27153e-006 3.61729e-006 0.0489909 -18.5127 67.7344 19.3234 8.13649 25.2327 -3.48773 -172.497 -2.93401 -1.23511 4.54188e-006 -4.6773e-006 -1.09343 -1.16363 -8.11235 0.500766 2.44502e-006 -3.05723e-006 -0.0876328 19.0642 69.8768 -21.1676 -8.13656 25.2337 3.4863 
54.1738 85.7327 15.0586 -2.54256 -4.0554 -6.19863 -0.0839623 -1.07534 -0.0963407 -0.154385 1.86397 -0.177896 -0.152384 3.50903 -0.175424 2.89753 7.99079 0.383102 -1.32859 4.02211 1.13221 62.8349 -0.634009 -0.825597 107.873 18.0197 5.94921 -1.08619e-007 -1.86408e-006 -3.09753e-006 12.8468 1.65133 -0.62862 3.63605e-006 2.33364e-006 -3.00712 8.02886 -4.95144 0.697686 -54.1607 -1.69649 0.523569 -112.907 15.1306 -0.362339 -2.20337e-006 4.0046e-007 1.42891e-005 -9.77656 3.59134 0.862453 -6.55687e-007 -4.2193e-006 3 -8.02899 -4.95146 -0.697676 176.293 -2.27815 0.685187 180 7.01532e-015 178.86 176.736 5.29856 179.783 -1.27153e-006 3.61729e-006 0.0489909 -18.5133 67.7352 19.3241 8.13649 25.2327 -3.48773 -172.494 -2.92741 -1.23571 4.54188e-006 -4.6773e-006 -1.09343 -1.16219 -8.11553 0.500907 2.44502e-006 -3.05723e-006 -0.0876328 19.0633 69.8769 -21.1677 -8.13656 25.2337 3.4863 
54.1762 85.7342 15.0621 -2.54462 -4.05159 -6.19498 -0.0840235 -1.07584 -0.0955119 -0.15544 1.86192 -0.17823 -0.153437 3.50698 -0.17574 2.89585 7.98872 0.379881 -1.3275 4.02311 1.12854 62.8336 -0.642158 -0.830122 107.871 18.0233 5.97523 -1.08619e-007 -1.86408e-006 -3.09753e-006 12.8297 1.63274 -0.627364 3.63605e-006 2.33364e-006 -3.00712 8.02886 -4.95144 0.697686 -54.1621 -1.69082 0.519881 -112.907 15.1304 -0.348806 -2.20337e-006 4.0046e-007 1.42891e-005 -9.78608 3.61766 0.864963 -6.55687e-007 -4.2193e-006 3 -8.02899 -4.95146 -0.697676 176.296 -2.27604 0.683111 180 7.01532e-015 178.86 176.737 5.29667 179.783 -1.27153e-006 3.61729e-006 0.0489909 -18.514 67.7359 19.3248 8.13649 25.2327 -3.48773 -172.491 -2.92061 -1.23633 4.54188e-006 -4.6773e-006 -1.09343 -1.16076 -8.11879 0.501043 2.44502e-006 -3.05723e-006 -0.0876328 19.0625 69.8771 -21.1678 -8.13656 25.2337 3.4863 
54.1912 85.7292 15.0351 -2.54667 -4.0477 -6.19129 -0.0840738 -1.07635 -0.0946681 -0.156483 1.85984 -0.178567 -0.154476 3.5049 -0.17606 2.89412 7.98665 0.376612 -1.32633 4.02405 1.12483 62.8322 -0.650309 -0.834637 107.869 18.0268 6.00081 -1.08619e-007 -1.86408e-006 -3.09753e-006 12.8129 1.61452 -0.626133 3.63605e-006 2.33364e-006 -3.00712 8.02886 -4.95144 0.697686 -54.1635 -1.68511 0.516175 -112.907 15.1301 -0.335192 -2.20337e-006 4.0046e-007 1.42891e-005 -9.79569 3.64413 0.867493 -6.55687e-007 -4.2193e-006 3 -8.02899 -4.95146 -0.697676 176.299 -2.27387 0.681021 180 7.01532e-015 178.86 176.737 5.29476 179.783 -1.27153e-006 3.61729e-006 0.0489909 -18.5146 67.7367 19.3255 8.13649 25.2327 -3.48773 -172.487 -2.91371 -1.23695 4.54188e-006 -4.6773e-006 -1.09343 -1.15934 -8.1221 0.501178 2.44502e-006 -3.05723e-006 -0.0876328 19.0618 69.8773 -21.1679 -8.13656 25.2337 3.4863 
54.1764 85.7265 15.038 -2.54873 -4.04379 -6.18759 -0.0841214 -1.07686 -0.0938207 -0.157522 1.85776 -0.178906 -0.155512 3.50282 -0.176381 2.89237 7.98459 0.373332 -1.32514 4.02498 1.12109 62.8308 -0.658461 -0.839151 107.867 18.0303 6.02628 -1.08619e-007 -1.86408e-006 -3.09753e-006 12.7962 1.59638 -0.624909 3.63605e-006 2.33364e-006 -3.00712 8.02886 -4.95144 0.697686 -54.1649 -1.6794 0.512465 -112.907 15.1297 -0.321557 -2.20337e-006 4.0046e-007 1.42891e-005 -9.80531 3.67064 0.870028 -6.55687e-007 -4.2193e-006 3 -8.02899 -4.95146 -0.697676 176.302 -2.27168 0.678927 180 7.01532e-015 178.86 176.737 5.29284 179.783 -1.27153e-006 3.61729e-006 0.0489909 -18.5152 67.7375 19.3262 8.13649 25.2327 -3.48773 -172.484 -2.90678 -1.23758 4.54188e-006 -4.6773e-006 -1.09343 -1.15792 -8.12542 0.501312 2.44502e-006 -3.05723e-006 -0.0876328 19.0611 69.8774 -21.1681 -8.13656 25.2337 3.4863 
54.1691 85.7307 15.0667 -2.55078 -4.03992 -6.18391 -0.0841743 -1.07736 -0.0929806 -0.158567 1.85568 -0.179242 -0.156555 3.50075 -0.1767 2.89065 7.98253 0.370075 -1.32399 4.02594 1.11739 62.8294 -0.666611 -0.843669 107.865 18.0338 6.05198 -1.08619e-007 -1.86408e-006 -3.09753e-006 12.7793 1.57806 -0.623672 3.63605e-006 2.33364e-006 -3.00712 8.02886 -4.95144 0.697686 -54.1662 -1.6737 0.508764 -112.907 15.1294 -0.307964 -2.20337e-006 4.0046e-007 1.42891e-005 -9.8149 3.69707 0.872553 -6.55687e-007 -4.2193e-006 3 -8.02899 -4.95146 -0.697676 176.305 -2.26953 0.676841 180 7.01532e-015 178.86 176.737 5.29095 179.783 -1.27153e-006 3.61729e-006 0.0489909 -18.5159 67.7382 19.3268 8.13649 25.2327 -3.48773 -172.481 -2.89991 -1.2382 4.54188e-006 -4.6773e-006 -1.09343 -1.1565 -8.12872 0.501448 2.44502e-006 -3.05723e-006 -0.0876328 19.0603 69.8776 -21.1682 -8.13656 25.2337 3.4863 
54.1788 85.7317 15.055 -2.55285 -4.03614 -6.18027 -0.0842409 -1.07786 -0.0921593 -0.15963 1.85365 -0.179575 -0.157614 3.49871 -0.177015 2.88899 7.98045 0.366878 -1.32294 4.02697 1.11375 62.8281 -0.674759 -0.848198 107.863 18.0375 6.07822 -1.08619e-007 -1.86408e-006 -3.09753e-006 12.7621 1.5593 -0.622404 3.63605e-006 2.33364e-006 -3.00712 8.02886 -4.95144 0.697686 -54.1676 -1.66804 0.505086 -112.907 15.1292 -0.294472 -2.20337e-006 4.0046e-007 1.42891e-005 -9.82439 3.72331 0.875055 -6.55687e-007 -4.2193e-006 3 -8.02899 -4.95146 -0.697676 176.308 -2.26745 0.674771 180 7.01532e-015 178.86 176.738 5.28906 179.783 -1.27153e-006 3.61729e-006 0.0489909 -18.5165 67.739 19.3275 8.13649 25.2327 -3.48773 -172.478 -2.89317 -1.23881 4.54188e-006 -4.6773e-006 -1.09343 -1.15506 -8.13196 0.501586 2.44502e-006 -3.05723e-006 -0.0876328 19.0595 69.8777 -21.1684 -8.13656 25.2337 3.4863 
54.1725 85.7338 15.0623 -2.55491 -4.03251 -6.17668 -0.0843294 -1.07834 -0.0913678 -0.160719 1.85166 -0.179899 -0.1587 3.49673 -0.177321 2.88743 7.97834 0.363777 -1.32204 4.02812 1.11022 62.8271 -0.682901 -0.852745 107.86 18.0414 6.10532 -1.08619e-007 -1.86408e-006 -3.09753e-006 12.7444 1.53983 -0.621084 3.63605e-006 2.33364e-006 -3.00712 8.02886 -4.95144 0.697686 -54.169 -1.66243 0.501445 -112.907 15.1291 -0.281144 -2.20337e-006 4.0046e-007 1.42891e-005 -9.8337 3.74923 0.877518 -6.55687e-007 -4.2193e-006 3 -8.02899 -4.95146 -0.697676 176.311 -2.2655 0.672729 180 7.01532e-015 178.86 176.738 5.28722 179.782 -1.27153e-006 3.61729e-006 0.0489909 -18.5171 67.7398 19.3282 8.13649 25.2327 -3.48773 -172.475 -2.88666 -1.2394 4.54188e-006 -4.6773e-006 -1.09343 -1.15362 -8.1351 0.501728 2.44502e-006 -3.05723e-006 -0.0876328 19.0586 69.8778 -21.1685 -8.13656 25.2337 3.4863 
54.1699 85.7311 15.0618 -2.55699 -4.02909 -6.17318 -0.0844478 -1.07881 -0.0906174 -0.161844 1.84976 -0.180214 -0.159822 3.49482 -0.177617 2.88601 7.97621 0.360807 -1.32136 4.02944 1.10684 62.8263 -0.691037 -0.857318 107.857 18.0455 6.13363 -1.08619e-007 -1.86408e-006 -3.09753e-006 12.7259 1.51938 -0.619695 3.63605e-006 2.33364e-006 -3.00712 8.02886 -4.95144 0.697686 -54.1703 -1.6569 0.497855 -112.907 15.1291 -0.26804 -2.20337e-006 4.0046e-007 1.42891e-005 -9.84279 3.77472 0.879927 -6.55687e-007 -4.2193e-006 3 -8.02899 -4.95146 -0.697676 176.314 -2.26373 0.670725 180 7.01532e-015 178.86 176.738 5.28542 179.782 -1.27153e-006 3.61729e-006 0.0489909 -18.5177 67.7405 19.3288 8.13649 25.2327 -3.48773 -172.472 -2.88044 -1.23996 4.54188e-006 -4.6773e-006 -1.09343 -1.15214 -8.1381 0.501876 2.44502e-006 -3.05723e-006 -0.0876328 19.0575 69.8779 -21.1685 -8.13656 25.2337 3.4863 
54.1647 85.7337 15.0792 -2.55908 -4.02593 -6.16977 -0.0846044 -1.07925 -0.0899193 -0.163016 1.84794 -0.180516 -0.160992 3.49301 -0.177899 2.88476 7.97403 0.358005 -1.32095 4.03097 1.10365 62.8258 -0.699165 -0.861922 107.853 18.0501 6.16346 -1.08619e-007 -1.86408e-006 -3.09753e-006 12.7065 1.49768 -0.618217 3.63605e-006 2.33364e-006 -3.00712 8.02886 -4.95144 0.697686 -54.1717 -1.65147 0.494331 -112.907 15.1292 -0.255221 -2.20337e-006 4.0046e-007 1.42891e-005 -9.85158 3.79967 0.882268 -6.55687e-007 -4.2193e-006 3 -8.02899 -4.95146 -0.697676 176.317 -2.26217 0.668768 180 7.01532e-015 178.86 176.738 5.28371 179.782 -1.27153e-006 3.61729e-006 0.0489909 -18.5183 67.7412 19.3295 8.13649 25.2327 -3.48773 -172.469 -2.8746 -1.24049 4.54188e-006 -4.6773e-006 -1.09343 -1.15065 -8.14094 0.502031 2.44502e-006 -3.05723e-006 -0.0876328 19.0563 69.8779 -21.1685 -8.13656 25.2337 3.4863 
